<svg width="24" height="29" viewBox="0 0 24 29" fill="none" xmlns="http://www.w3.org/2000/svg">
<path d="M2.71672 14.1858C2.1311 14.7718 1.18135 14.772 0.595402 14.1864C0.00944948 13.6008 0.0091809 12.6511 0.594802 12.0651L2.71672 14.1858ZM12 2.77539L10.939 1.71503L12 0.65347L13.0609 1.71503L12 2.77539ZM23.4052 12.0651C23.9908 12.6511 23.9905 13.6008 23.4046 14.1864C22.8186 14.772 21.8689 14.7718 21.2832 14.1858L23.4052 12.0651ZM0.594802 12.0651L10.939 1.71503L13.0609 3.83575L2.71672 14.1858L0.594802 12.0651ZM13.0609 1.71503L23.4052 12.0651L21.2832 14.1858L10.939 3.83575L13.0609 1.71503Z" fill="#00E68A"/>
<path d="M10.4995 3.0271C10.4995 2.19867 11.1711 1.5271 11.9995 1.5271C12.8279 1.5271 13.4995 2.19867 13.4995 3.0271H10.4995ZM13.4995 26.7755C13.4995 27.6039 12.8279 28.2755 11.9995 28.2755C11.1711 28.2755 10.4995 27.6039 10.4995 26.7755H13.4995ZM13.4995 3.0271L13.4995 26.7755H10.4995L10.4995 3.0271H13.4995Z" fill="#00E68A"/>
</svg>
