<svg width="20" height="23" viewBox="0 0 20 23" fill="none" xmlns="http://www.w3.org/2000/svg">
<path d="M16.939 11.1772C17.5247 10.5913 18.4744 10.591 19.0604 11.1766C19.6463 11.7622 19.6466 12.712 19.061 13.2979L16.939 11.1772ZM10.242 20L11.3029 21.0604L10.242 22.1219L9.18099 21.0604L10.242 20ZM1.42294 13.2979C0.837322 12.712 0.837591 11.7622 1.42354 11.1766C2.0095 10.591 2.95924 10.5913 3.54486 11.1772L1.42294 13.2979ZM19.061 13.2979L11.3029 21.0604L9.18099 18.9396L16.939 11.1772L19.061 13.2979ZM9.18099 21.0604L1.42294 13.2979L3.54486 11.1772L11.3029 18.9396L9.18099 21.0604Z" fill="#00E68A"/>
<path d="M11.741 19.811C11.741 20.6395 11.0695 21.311 10.241 21.311C9.4126 21.311 8.74103 20.6395 8.74103 19.811L11.741 19.811ZM8.74103 2C8.74103 1.17157 9.4126 0.499996 10.241 0.499996C11.0695 0.499996 11.741 1.17157 11.741 2L8.74103 2ZM8.74103 19.811L8.74103 2L11.741 2L11.741 19.811L8.74103 19.811Z" fill="#00E68A"/>
</svg>
