<svg width="96" height="96" viewBox="0 0 96 96" fill="none" xmlns="http://www.w3.org/2000/svg">
<path d="M59.9385 82.7359C59.9385 84.4238 59.9483 85.9751 59.9385 87.5166C59.8995 92.3559 56.3383 95.956 51.5088 95.9658C48.855 95.9756 46.1817 96.1121 43.5669 95.7609C39.635 95.2438 36.8544 91.79 36.7861 87.8093C36.7569 86.1604 36.7861 84.5116 36.7861 82.7261C36.1422 82.7261 35.5666 82.7456 35.0007 82.7261C32.3469 82.6383 30.2492 80.5406 30.1809 77.8868C30.1516 76.7843 30.1614 75.6819 30.1712 74.5794C30.2102 71.6231 32.3176 69.5352 35.2836 69.4962C35.7324 69.4962 36.1812 69.4962 36.7764 69.4962C36.7764 68.7547 36.8447 68.0424 36.7373 67.3497C36.6983 67.0765 36.3081 66.7838 36.0056 66.6277C28.3955 62.7544 23.4001 56.715 21.1853 48.4707C16.8924 32.5772 27.6052 16.1179 43.8304 13.6202C45.2548 13.4056 46.7086 13.2982 48.1428 13.2397C49.3526 13.1909 49.9965 13.8544 50.0063 15.0739C50.0258 18.3131 50.0258 21.5523 50.0063 24.7915C49.9965 26.3525 49.138 26.9575 47.5281 26.5867C45.2939 26.0794 43.3621 27.5624 43.3621 29.7771C43.3718 31.8943 45.2841 33.4261 47.3623 32.987C49.3331 32.5675 50.0063 33.1041 50.0063 35.0749C50.0063 36.5579 50.0063 38.0409 50.0063 39.602C51.0795 39.602 52.1332 39.602 53.265 39.602C53.4406 37.4653 54.2699 35.6018 56.1042 34.2944C57.392 33.387 58.8263 32.9773 60.3873 33.0748C63.7436 33.2797 66.1339 35.7872 66.6023 39.68C68.4365 39.68 70.2902 39.68 72.144 39.68C72.7001 39.68 73.2465 39.68 73.8026 39.68C76.154 39.68 76.6125 40.0898 76.4564 42.4802C75.7734 53.0271 70.8269 60.9396 61.6069 66.1399C59.7434 67.1936 59.7141 67.1546 60.0458 69.4767C60.6019 69.4767 61.1873 69.4571 61.763 69.4767C64.368 69.5742 66.4559 71.6426 66.5437 74.2574C66.5827 75.3599 66.5632 76.4624 66.5535 77.5649C66.5242 80.5992 64.4363 82.6773 61.402 82.7066C60.9532 82.7456 60.5141 82.7359 59.9385 82.7359ZM50.0844 59.6128C50.0844 62.9397 50.0844 66.1984 50.0844 69.4474C52.2796 69.4474 54.4065 69.4474 56.631 69.4474C56.631 68.4425 56.6798 67.4863 56.6213 66.5302C56.5335 65.3301 57.0213 64.6081 58.1433 64.1496C61.1483 62.93 63.7728 61.1055 66.0364 58.7834C70.2902 54.432 72.6123 49.2025 73.1294 43.0168C72.7196 43.0168 72.3782 43.0168 72.0464 43.0168C69.7341 43.0168 67.4316 43.0168 65.1193 43.0168C63.3533 43.0168 62.7386 42.2363 63.1192 40.5289C63.4509 39.0459 62.9533 37.6995 61.7825 36.8994C60.6995 36.1677 59.158 36.1774 58.0848 36.9189C56.914 37.7287 56.4456 39.0459 56.7871 40.5581C57.1579 42.207 56.5335 42.9973 54.8456 43.007C53.2748 43.0168 51.6942 43.007 50.0746 43.007C50.0746 44.1681 50.0746 45.212 50.0746 46.256C54.1626 46.8121 56.6505 49.3781 56.631 52.9685C56.6115 56.5394 54.065 59.1347 50.0844 59.6128ZM46.6988 69.4571C46.6988 65.6326 46.6988 61.9153 46.6988 58.198C46.6988 56.3443 47.4403 55.7394 49.216 56.1394C50.6795 56.4711 52.0454 55.9443 52.826 54.7637C53.5479 53.6612 53.5284 52.1392 52.7674 51.066C51.9674 49.9342 50.6405 49.4464 49.216 49.7684C47.4501 50.1684 46.7086 49.5635 46.6988 47.7097C46.6988 46.1682 46.6988 44.6364 46.6988 43.0851C45.5183 43.0851 44.4743 43.0851 43.4304 43.0851C42.9816 46.8706 40.6497 49.3488 37.3227 49.622C35.7519 49.7488 34.3177 49.3586 33.0201 48.4707C31.1371 47.1731 30.2785 45.2901 30.1029 43.0948C27.8881 43.0948 25.7709 43.0948 23.6245 43.0948C23.7513 45.6608 24.2977 48.0707 25.2343 50.383C27.8101 56.7931 32.2591 61.4177 38.6106 64.1593C39.6741 64.6179 40.1717 65.3008 40.0936 66.4619C40.0351 67.4473 40.0838 68.4327 40.0838 69.4571C42.3279 69.4571 44.4548 69.4571 46.6988 69.4571ZM46.6598 36.4409C42.8547 36.0018 40.3473 33.631 40.1034 30.3137C39.9863 28.7527 40.3765 27.3087 41.2644 26.0111C42.562 24.1378 44.445 23.2792 46.6988 23.0938C46.6988 21.9328 46.6988 20.8693 46.6988 19.8059C46.6988 18.7522 46.6988 17.6887 46.6988 16.635C34.5714 17.2399 24.1123 27.699 23.644 39.7093C23.9855 39.7093 24.3172 39.7093 24.6489 39.7093C26.9612 39.7093 29.2638 39.7093 31.5761 39.7093C33.4006 39.7093 33.986 40.4703 33.5762 42.2655C33.264 43.6705 33.7713 45.0169 34.9129 45.7974C35.9958 46.5389 37.5276 46.5487 38.6106 45.8169C39.7521 45.0462 40.2887 43.6802 39.9765 42.2948C39.5667 40.4313 40.1326 39.7093 42.0449 39.7093C43.5767 39.7093 45.1182 39.7093 46.6598 39.7093C46.6598 38.5385 46.6598 37.5141 46.6598 36.4409ZM48.3574 79.4284C52.6698 79.4284 56.9725 79.4381 61.2849 79.4284C62.6313 79.4284 63.2265 78.8137 63.246 77.4673C63.2557 76.6087 63.2557 75.7404 63.246 74.8818C63.2362 73.3988 62.6606 72.8232 61.1776 72.8134C58.797 72.8037 56.4164 72.8134 54.0455 72.8134C47.8794 72.8134 41.7034 72.8134 35.5373 72.8134C34.0543 72.8134 33.4884 73.389 33.4689 74.8818C33.4591 75.6721 33.4689 76.4721 33.4689 77.2624C33.4786 78.882 34.0153 79.4284 35.6446 79.4284C39.879 79.4284 44.1133 79.4284 48.3574 79.4284ZM53.3235 82.7651C53.3235 84.4042 53.3138 85.9458 53.3235 87.4873C53.3333 88.3849 52.9528 89.0289 52.0844 89.2923C51.0112 89.624 50.0453 88.785 50.0258 87.5068C50.0063 85.936 50.0161 84.3652 50.0161 82.8237C48.8258 82.8237 47.7818 82.8237 46.7086 82.8237C46.7086 84.3555 46.7183 85.7994 46.7086 87.2434C46.6988 88.5605 46.1232 89.3216 45.0987 89.3508C44.045 89.3801 43.4108 88.5996 43.4011 87.2337C43.3913 85.7604 43.4011 84.2969 43.4011 82.8139C42.2401 82.8139 41.1961 82.8139 40.0936 82.8139C40.0936 83.292 40.0936 83.7018 40.0936 84.1115C40.0936 85.458 40.0351 86.8044 40.1229 88.141C40.279 90.5509 42.3083 92.5607 44.728 92.6388C47.1671 92.7169 49.616 92.7169 52.0649 92.6388C54.0163 92.5803 55.9773 91.1948 56.3188 89.2923C56.6993 87.1654 56.6213 84.9604 56.7481 82.7651C55.4602 82.7651 54.4651 82.7651 53.3235 82.7651Z" fill="#014945"/>
<path d="M59.9385 9.83476C59.9385 7.41512 59.9385 4.97598 59.9385 2.53683C59.9385 0.380624 60.3776 -0.0389087 62.563 0.00987421C75.6076 0.283059 87.296 10.4884 89.2961 23.3769C89.5205 24.8404 89.6278 26.3234 89.7058 27.7966C89.7644 29.143 89.1205 29.7675 87.7838 29.7772C84.6519 29.787 81.5103 29.787 78.3785 29.7772C76.5637 29.7772 75.9881 29.026 76.3881 27.2112C76.7393 25.6307 76.0076 24.0891 74.5929 23.4159C73.1782 22.7525 71.461 23.1818 70.5244 24.4599C69.9293 25.2794 69.7439 26.1966 69.978 27.2015C70.4073 29.0455 69.8122 29.7675 67.8901 29.7675C65.929 29.7675 63.9582 29.7772 61.9971 29.7675C60.5239 29.7577 59.958 29.1821 59.9483 27.6796C59.9385 26.2063 59.9483 24.7233 59.9483 23.1915C57.8506 23.0257 56.0847 22.2842 54.787 20.6548C53.7821 19.3962 53.304 17.9522 53.3333 16.3424C53.4016 12.8983 55.8115 10.4884 59.9385 9.83476ZM66.5144 26.4307C66.9632 22.5769 69.3731 20.0597 72.7294 19.8645C74.3392 19.767 75.793 20.1963 77.0906 21.1426C78.8663 22.45 79.6663 24.2843 79.8419 26.46C81.9201 26.46 83.9104 26.46 85.9008 26.46C86.0276 26.46 86.1642 26.4112 86.291 26.3819C85.4715 12.9178 73.9002 3.68811 63.3143 3.47346C63.2948 3.54176 63.2557 3.6003 63.2557 3.66859C63.246 6.21506 63.246 8.76153 63.2362 11.3178C63.2265 13.152 62.485 13.7471 60.6995 13.3471C59.2848 13.0252 57.9482 13.5227 57.1579 14.6643C56.4066 15.7375 56.3871 17.2693 57.1189 18.362C57.8994 19.5426 59.2555 20.0499 60.7288 19.7182C62.4459 19.3279 63.2265 19.9426 63.2362 21.689C63.246 23.2598 63.2362 24.8306 63.2362 26.4307C64.407 26.4307 65.4217 26.4307 66.5144 26.4307Z" fill="#014945"/>
<path d="M50.0072 4.95635C50.0072 6.02957 50.0267 7.09304 49.9974 8.16626C49.9682 9.21997 49.2852 9.92245 48.3486 9.91269C47.4119 9.91269 46.7192 9.21022 46.7095 8.15651C46.6802 6.01981 46.6802 3.88312 46.7095 1.74643C46.729 0.692718 47.4217 0 48.3583 0C49.2949 0 49.9779 0.692718 50.0072 1.75619C50.0364 2.81965 50.0072 3.89288 50.0072 4.95635Z" fill="#014945"/>
<path d="M11.9369 43.0168C10.9027 43.0168 9.86854 43.0363 8.83434 43.0168C7.70257 42.9876 6.99034 42.3144 7.0001 41.3485C7.00986 40.3728 7.73184 39.7289 8.87336 39.7191C10.9418 39.6996 13.0102 39.6996 15.0786 39.7191C16.2006 39.7289 16.9225 40.4118 16.9128 41.3875C16.903 42.3631 16.181 42.9973 15.0395 43.0168C14.0053 43.0363 12.9711 43.0168 11.9369 43.0168Z" fill="#014945"/>
<path d="M84.6714 43.0168C83.6372 43.0168 82.603 43.0363 81.5688 43.0071C80.5053 42.9778 79.8126 42.3143 79.7931 41.3777C79.7833 40.4411 80.4663 39.7288 81.52 39.7093C83.6567 39.6801 85.7934 39.6801 87.9301 39.7093C88.9935 39.7191 89.6862 40.3923 89.7058 41.3289C89.7155 42.3046 88.9935 42.9778 87.8715 42.9973C86.8081 43.0363 85.7446 43.0168 84.6714 43.0168Z" fill="#014945"/>
<path d="M13.7413 19.6887C14.356 19.9424 14.717 20.04 15.0389 20.2253C16.7756 21.2107 18.5123 22.1962 20.2294 23.2108C21.2832 23.8255 21.6051 24.7524 21.127 25.6207C20.6392 26.4988 19.6928 26.7037 18.6294 26.1086C16.8341 25.0939 15.0487 24.0499 13.2632 23.0157C12.473 22.5572 12.0924 21.8352 12.4534 21.0254C12.6876 20.4692 13.3218 20.0985 13.7413 19.6887Z" fill="#014945"/>
<path d="M13.78 63.0664C13.3312 62.6567 12.7458 62.3152 12.4726 61.8078C12.1312 61.1639 12.2873 60.3736 12.941 59.9736C14.9898 58.7247 17.068 57.5247 19.1852 56.3832C19.8974 56.0027 20.6194 56.3344 21.0682 57.0076C21.517 57.6808 21.5658 58.5589 20.9121 58.9687C18.7461 60.3443 16.4924 61.5639 14.2581 62.842C14.18 62.8908 14.0532 62.8615 13.9556 62.8713C13.8873 62.9396 13.8288 62.9981 13.78 63.0664Z" fill="#014945"/>
<path d="M84.3693 60.891C84.3888 62.3252 83.2765 63.2716 82.2911 62.7643C80.1252 61.652 78.0275 60.4129 75.9591 59.1348C75.2371 58.686 75.1786 57.8372 75.5981 57.1054C76.0469 56.3249 76.8079 55.9737 77.6177 56.4127C79.6666 57.5152 81.6862 58.686 83.6766 59.9056C84.0571 60.1397 84.2327 60.6959 84.3693 60.891Z" fill="#014945"/>
<path d="M28.8372 5.33679C29.0518 5.4929 29.6372 5.73681 29.9104 6.1661C31.0519 8.0101 32.1252 9.89312 33.1886 11.7859C33.7057 12.703 33.4326 13.6592 32.6228 14.1177C31.813 14.5763 30.8763 14.3226 30.33 13.4055C29.2372 11.5713 28.1542 9.72726 27.12 7.86375C26.4468 6.65393 27.1786 5.34655 28.8372 5.33679Z" fill="#014945"/>
</svg>
