<svg width="81" height="50" viewBox="0 0 81 50" fill="none" xmlns="http://www.w3.org/2000/svg">
<path d="M26.8117 13.7044C21.6922 23.0389 11.636 41.3613 11.636 41.3613C11.636 41.3613 34.924 41.371 34.9048 41.3613C36.7332 41.3998 37.6859 41.7366 38.6578 43.5458C38.6578 43.5554 42.1703 49.9548 42.1703 49.9548C42.1703 49.9548 5.11154 49.9548 5.10191 49.9548C0.617529 49.9356 -1.24936 46.6637 0.877353 42.8529C5.37136 34.8272 22.8855 2.8399 22.8855 2.82065C23.7804 1.17509 25.1662 0.106924 26.9946 0.12617C28.823 0.15504 30.2183 1.25208 31.1133 2.86877C31.1133 2.88801 51.4277 39.8505 51.4181 39.8409C52.0917 41.0726 52.9963 41.3132 54.2858 41.3228C63.9089 41.4479 71.492 34.2787 71.5401 24.9346C71.5882 16.1198 64.111 8.79662 54.9402 8.71001C54.9498 8.71001 40.7653 8.70039 40.7653 8.71001C39.5624 8.61378 38.8984 8.11338 38.4365 7.28579C38.4557 7.28579 34.5199 0.0684312 34.5199 0.0684312C34.5199 0.0684312 48.9931 -0.085539 54.7285 0.0684312C65.4967 0.347502 73.5032 5.13983 78.1223 14.7918C84.8296 28.8128 76.5249 45.6917 61.1278 49.1368C57.4614 49.9644 49.7533 49.9548 49.7437 49.9548C47.8287 50.0125 46.4526 49.0021 45.4902 47.2315C39.8415 36.8385 27.5046 14.7149 26.8117 13.7044Z" fill="url(#paint0_linear_885_4487)"/>
<defs>
<linearGradient id="paint0_linear_885_4487" x1="73.7699" y1="8.70915" x2="1.82908" y2="47.8696" gradientUnits="userSpaceOnUse">
<stop stop-color="#00BFFF"/>
<stop offset="1" stop-color="#00E68A"/>
</linearGradient>
</defs>
</svg>
