<svg width="96" height="96" viewBox="0 0 96 96" fill="none" xmlns="http://www.w3.org/2000/svg">
<path d="M7.89841 59.9406C-2.33772 55.651 -2.92729 41.0541 7.90857 36.1139C6.05855 32.6883 5.79426 29.1509 7.49181 25.6135C9.17919 22.0964 12.0457 20.0634 15.9694 19.3112C15.8677 16.1703 16.7724 13.3647 19.0494 11.0979C21.2958 8.85148 24.0506 7.88581 27.2627 8.02812C27.3745 7.63168 27.4863 7.26574 27.588 6.88964C28.9094 2.44754 33.4125 -0.530794 37.8648 0.079105C42.6931 0.749993 46.2305 4.59235 46.3627 9.32923C46.4033 10.793 46.3728 12.2567 46.3728 13.7307C46.3728 37.8217 46.3728 61.9126 46.3728 86.0036C46.3728 90.6287 43.6791 94.3796 39.5216 95.5994C34.3375 97.1241 29.0212 94.1661 27.5371 88.9413C27.4558 88.6567 27.3745 88.3721 27.2729 88.0163C24.1014 88.1383 21.306 87.1929 19.0392 84.916C16.8029 82.6695 15.8576 79.9047 15.9796 76.723C12.0864 75.981 9.16903 73.948 7.48164 70.4004C5.80442 66.863 6.04838 63.3459 7.89841 59.9406ZM22.3733 43.2294C22.3733 45.913 22.3632 48.505 22.4038 51.0971C22.4038 51.3309 22.7291 51.6257 22.9731 51.768C25.0162 52.9471 25.9717 55.0106 25.4127 57.1656C24.8536 59.3307 22.9527 60.825 20.7368 60.8148C18.5716 60.8047 16.6911 59.3307 16.132 57.2063C15.573 55.0513 16.498 52.9268 18.5513 51.8188C19.0494 51.5545 19.1815 51.2699 19.1815 50.7413C19.1612 47.946 19.1714 45.1404 19.1714 42.3451C19.1714 40.4544 19.6186 40.0173 21.5398 40.0173C28.3707 40.0173 35.2015 40.0173 42.0324 40.0173C42.3882 40.0173 42.7439 40.0173 43.0794 40.0173C43.0794 37.2829 43.0794 34.6705 43.0794 32.0175C36.7364 32.0175 30.4748 32.0073 24.2132 32.048C23.9184 32.048 23.522 32.4444 23.339 32.7595C22.2209 34.64 20.1167 35.5854 18.0532 35.0669C15.9084 34.5384 14.4142 32.6883 14.3735 30.5232C14.3328 28.3479 15.7559 26.4064 17.8398 25.8067C19.9744 25.1968 22.1802 26.1116 23.3288 28.0531C23.5016 28.3479 23.8269 28.7748 24.0912 28.7748C26.6833 28.8257 29.2652 28.8053 31.9589 28.8053C31.9589 27.3619 31.9284 25.9998 31.9691 24.6479C31.9894 24.0176 31.8471 23.6618 31.227 23.3366C29.2449 22.2896 28.3503 20.0228 28.9602 17.8881C29.56 15.7738 31.5523 14.3406 33.7683 14.4219C35.8826 14.5032 37.6818 15.9873 38.2104 18.1016C38.7288 20.1651 37.8038 22.2591 35.9029 23.3874C35.6183 23.55 35.2015 23.8245 35.2015 24.0684C35.1405 25.6237 35.171 27.1789 35.171 28.7545C37.8851 28.7545 40.4975 28.7545 43.1505 28.7545C43.1505 22.1574 43.242 15.6315 43.1099 9.1056C43.0489 5.741 39.9994 3.15909 36.6043 3.23025C33.2803 3.29124 30.4951 6.03578 30.3833 9.32923C30.3122 11.3216 29.7429 11.7587 27.7608 11.3724C22.7494 10.3864 18.348 14.7777 19.334 19.7992C19.7203 21.761 19.2629 22.3506 17.2705 22.4319C12.9707 22.6149 9.56546 26.1726 9.59596 30.4724C9.60612 32.485 10.338 34.2233 11.6493 35.7582C12.6963 36.9881 12.2998 38.2079 10.7649 38.6247C10.5718 38.6755 10.3787 38.7263 10.1855 38.7873C4.57446 40.3934 1.65711 46.5229 4.01539 51.8493C5.32667 54.8175 7.64428 56.6167 10.7853 57.3994C12.2795 57.7755 12.6556 59.0055 11.7001 60.2049C11.6188 60.3066 11.5171 60.3981 11.4358 60.5099C9.42315 63.1121 8.96573 65.9481 10.3482 68.9468C11.7306 71.9353 14.1905 73.4499 17.4738 73.5922C19.1714 73.6735 19.6999 74.3241 19.3645 76.0318C18.3277 81.3176 22.6884 85.6682 27.9641 84.611C29.7023 84.2654 30.3427 84.7838 30.3833 86.5932C30.4545 89.7443 32.9246 92.4177 36.1062 92.7735C39.2065 93.1089 42.4492 91.0556 42.8862 87.9858C43.2522 85.3937 42.9574 82.7102 42.9574 79.9961C42.6728 79.9961 42.3068 79.9961 41.9511 79.9961C38.2815 79.9961 34.6221 79.9961 30.9526 79.9961C29.2652 79.9961 28.7773 79.4879 28.7773 77.7802C28.7773 76.5502 28.7569 75.3101 28.7874 74.0801C28.7976 73.5617 28.6756 73.2669 28.1674 72.9925C26.4901 72.1183 25.5956 70.685 25.5956 68.7943C25.5956 66.9036 26.5003 65.4704 28.1674 64.5962C28.6756 64.3319 28.7874 64.0371 28.7874 63.5187C28.7671 60.1846 28.7773 56.8505 28.7773 53.5265C28.7773 51.6765 29.2347 51.2089 31.0542 51.2089C34.7238 51.2089 38.3832 51.2089 42.0527 51.2089C42.4085 51.2089 42.7541 51.2089 43.0997 51.2089C43.0997 48.4644 43.0997 45.8622 43.0997 43.2294C36.1875 43.2294 29.3567 43.2294 22.3733 43.2294ZM43.0895 76.7535C43.0895 69.2721 43.0895 61.8618 43.0895 54.4617C39.3692 54.4617 35.7098 54.4617 31.9691 54.4617C31.9691 54.7362 31.9691 54.9598 31.9691 55.1834C31.9691 58.0805 31.9589 60.9775 31.9894 63.8847C31.9894 64.0981 32.2435 64.3929 32.457 64.5149C36.0859 66.6394 36.0859 70.9493 32.457 73.1043C32.2435 73.2263 31.9996 73.5109 31.9894 73.7345C31.9386 74.7205 31.9691 75.7167 31.9691 76.7535C35.7199 76.7535 39.3692 76.7535 43.0895 76.7535ZM33.5446 20.8055C34.4087 20.8258 35.1507 20.1041 35.1609 19.2401C35.1812 18.3761 34.4595 17.634 33.5955 17.6239C32.7314 17.6035 31.9894 18.3252 31.9792 19.1893C31.9589 20.0533 32.6806 20.7953 33.5446 20.8055ZM19.2019 32.0073C20.0659 31.987 20.7774 31.2551 20.7673 30.3911C20.7469 29.527 20.0151 28.8155 19.151 28.8257C18.287 28.846 17.5755 29.5779 17.5856 30.4419C17.606 31.3059 18.3378 32.0175 19.2019 32.0073ZM20.7673 57.5925C21.6313 57.5925 22.3632 56.8708 22.3632 56.0068C22.3632 55.1428 21.6415 54.4109 20.7774 54.4109C19.9134 54.4109 19.1815 55.1326 19.1815 55.9966C19.1815 56.8607 19.9032 57.5925 20.7673 57.5925ZM31.9589 68.8147C31.9691 67.9506 31.2474 67.2188 30.3833 67.2086C29.5193 67.1984 28.7874 67.9201 28.7773 68.7842C28.7671 69.6482 29.4888 70.3801 30.3528 70.3902C31.227 70.4004 31.9589 69.6787 31.9589 68.8147Z" fill="#014945"/>
<path d="M88.028 59.89C92.0127 67.097 87.6824 75.3814 79.9672 76.6927C80.0586 79.8134 79.1641 82.6291 76.8973 84.906C74.6305 87.183 71.8352 88.1283 68.6434 87.9962C67.8708 91.4319 66.0005 93.9223 62.7782 95.2641C56.6385 97.8155 49.7568 93.3531 49.5739 86.7052C49.5332 85.4041 49.5637 84.103 49.5637 82.8019C49.5637 58.5482 49.5637 34.2844 49.5637 10.0308C49.5637 5.40574 52.2473 1.6447 56.4047 0.424907C61.599 -1.09984 66.9255 1.848 68.3994 7.0728C68.4807 7.35742 68.5621 7.64204 68.6637 8.00798C71.8148 7.87583 74.6204 8.80085 76.8872 11.0778C79.1235 13.3243 80.0891 16.079 79.9468 19.2911C83.8298 20.023 86.7472 22.056 88.4447 25.5934C90.1321 29.1105 89.8882 32.6275 88.0178 36.0938C92.9987 38.5232 95.9262 42.4164 95.9058 48.0275C95.8855 53.6182 92.9885 57.4911 88.028 59.89ZM52.847 43.2093C52.847 45.8725 52.847 48.5052 52.847 51.2091C53.2434 51.2091 53.6094 51.2091 53.9651 51.2091C61.3957 51.2091 68.8263 51.2091 76.2569 51.2091C77.8223 51.2091 78.3509 51.7377 78.3509 53.3133C78.3509 55.5801 78.3713 57.8468 78.3408 60.1136C78.3306 60.7642 78.4526 61.1505 79.1235 61.4961C80.8617 62.4008 81.7969 64.4134 81.5122 66.2838C81.1666 68.5099 79.3166 70.238 77.1108 70.3904C74.8745 70.5531 72.7907 69.1096 72.1605 66.975C71.5201 64.7997 72.4349 62.5837 74.4476 61.4249C74.7119 61.2724 75.1083 61.0285 75.1185 60.8252C75.1693 58.7109 75.149 56.5864 75.149 54.4924C70.8187 54.4924 66.6104 54.4924 62.3614 54.4924C62.3614 60.2966 62.3513 66.0297 62.3919 71.7627C62.3919 72.0473 62.7375 72.4234 63.0221 72.5861C65.0246 73.755 65.9598 75.8693 65.3906 78.0142C64.8315 80.1285 62.9408 81.5922 60.7655 81.5922C58.6004 81.5922 56.6995 80.1285 56.1405 78.0243C55.561 75.8694 56.4861 73.7144 58.5089 72.6166C58.9866 72.3624 59.1798 72.1185 59.1696 71.5696C59.1493 66.0703 59.1595 60.5711 59.1595 55.0718C59.1595 54.8787 59.1391 54.6855 59.129 54.4619C56.9841 54.4619 54.9105 54.4619 52.8165 54.4619C52.7962 54.6449 52.7758 54.777 52.7758 54.9092C52.7758 65.4706 52.7453 76.032 52.7962 86.5934C52.8063 90.0597 55.7542 92.8042 59.2204 92.7839C62.6664 92.7635 65.5024 89.9478 65.5634 86.4917C65.5939 84.8247 66.2749 84.2555 67.8708 84.5706C73.3091 85.6481 77.619 81.3584 76.5619 75.9303C76.2468 74.3141 76.7957 73.6534 78.4526 73.5721C81.7664 73.4094 84.2568 71.8847 85.6392 68.8454C86.9912 65.8467 86.5134 62.9903 84.4601 60.4288C83.2403 58.9142 83.5859 57.8062 85.4562 57.3081C89.7865 56.1595 92.7344 52.4289 92.7649 48.0681C92.7954 43.6464 89.878 39.8853 85.4969 38.696C83.5452 38.1675 83.22 37.1205 84.4906 35.5246C86.5541 32.9122 87.0013 30.0253 85.5782 27.0063C84.1551 23.9975 81.6545 22.5032 78.3204 22.4016C76.877 22.3609 76.2773 21.6189 76.5416 20.2059C76.633 19.718 76.7347 19.2199 76.755 18.7219C76.9482 14.0155 72.7602 10.4476 68.125 11.3624C66.2139 11.7385 65.6752 11.2608 65.5329 9.34975C65.4719 8.47557 65.2483 7.56072 64.8722 6.76785C63.6117 4.10463 60.6639 2.73236 57.7872 3.37275C54.8698 4.02331 52.7962 6.52389 52.7758 9.54289C52.7453 15.7435 52.7657 21.934 52.7657 28.1346C52.7657 28.3278 52.786 28.5209 52.7962 28.7344C57.0655 28.7344 61.2738 28.7344 65.5532 28.7344C65.5532 27.1791 65.5837 25.6849 65.5227 24.1906C65.5126 23.9263 65.1974 23.5807 64.9433 23.4282C63.3779 22.5337 62.4732 21.2123 62.3716 19.4131C62.2394 17.0243 63.9167 14.9507 66.3054 14.4729C68.4909 14.0358 70.7679 15.3166 71.6115 17.4512C72.4756 19.6469 71.642 22.1475 69.5379 23.2961C68.8975 23.6417 68.7349 24.0178 68.745 24.6785C68.7857 26.4066 68.7654 28.1448 68.7552 29.8728C68.7552 31.4484 68.2266 31.9872 66.6714 31.9872C62.4021 31.9872 58.143 31.9872 53.8737 31.9872C53.5179 31.9872 53.1723 31.9872 52.8368 31.9872C52.8368 34.7317 52.8368 37.3441 52.8368 39.987C59.1798 39.987 65.4414 39.9972 71.703 39.9565C71.9877 39.9565 72.3536 39.6109 72.5264 39.3263C73.4514 37.7812 74.7729 36.8867 76.5822 36.8054C78.9405 36.6935 80.9633 38.3403 81.4614 40.6884C81.929 42.9145 80.6279 45.2321 78.4526 46.0656C76.2773 46.8992 73.8682 46.0453 72.6585 44.0225C72.4146 43.6159 72.3333 43.1686 71.6217 43.1686C65.3906 43.2296 59.1595 43.2093 52.847 43.2093ZM67.1491 20.8057C68.0131 20.8057 68.745 20.084 68.745 19.2199C68.745 18.3559 68.0233 17.624 67.1593 17.624C66.2953 17.624 65.5634 18.3458 65.5634 19.2098C65.5634 20.0738 66.2851 20.8057 67.1491 20.8057ZM78.3408 41.654C78.3611 40.79 77.6597 40.048 76.7957 40.0175C75.9317 39.9972 75.1896 40.6985 75.1591 41.5626C75.1388 42.4266 75.8402 43.1686 76.7042 43.1991C77.5682 43.2195 78.3204 42.5181 78.3408 41.654ZM76.755 64.0068C75.891 64.0068 75.1591 64.7285 75.1591 65.5926C75.1591 66.4566 75.8808 67.1885 76.7449 67.1885C77.6089 67.1885 78.3408 66.4667 78.3408 65.6027C78.3408 64.7387 77.619 64.0068 76.755 64.0068ZM60.7452 78.3903C61.6092 78.4004 62.3411 77.6787 62.3513 76.8045C62.3614 75.9405 61.6397 75.2086 60.7757 75.1985C59.9117 75.1883 59.1798 75.91 59.1696 76.7842C59.1594 77.6482 59.8812 78.3801 60.7452 78.3903Z" fill="#014945"/>
</svg>
