<svg width="100" height="96" viewBox="0 0 100 96" fill="none" xmlns="http://www.w3.org/2000/svg">
<path d="M7.66797 69.3139V20.384C7.66797 18.1862 9.44814 16.406 11.646 16.406L22.1082 16.6148C21.2729 15.2026 20.8552 13.7009 20.8552 11.871C20.8552 6.97804 24.3359 3 28.6223 3C32.9086 3 36.3894 6.96809 36.3894 11.871C36.3894 13.5716 36.0513 15.1032 35.3253 16.4557L47.0605 16.406C49.2584 16.406 51.0385 18.1862 51.0385 20.384" fill="white"/>
<path d="M7.66797 69.3139V20.384C7.66797 18.1862 9.44814 16.406 11.646 16.406L22.1082 16.6148C21.2729 15.2026 20.8552 13.7009 20.8552 11.871C20.8552 6.97804 24.3359 3 28.6223 3C32.9086 3 36.3894 6.96809 36.3894 11.871C36.3894 13.5716 36.0513 15.1032 35.3253 16.4557L47.0605 16.406C49.2584 16.406 51.0385 18.1862 51.0385 20.384" stroke="#014945" stroke-width="3" stroke-miterlimit="10" stroke-linecap="round" stroke-linejoin="round"/>
<path d="M17.3347 43.5461C18.9111 43.5461 20.189 42.2682 20.189 40.6919C20.189 39.1155 18.9111 37.8376 17.3347 37.8376C15.7584 37.8376 14.4805 39.1155 14.4805 40.6919C14.4805 42.2682 15.7584 43.5461 17.3347 43.5461Z" stroke="#014945" stroke-width="3" stroke-miterlimit="10"/>
<path d="M29.7664 43.5461C31.3427 43.5461 32.6206 42.2682 32.6206 40.6919C32.6206 39.1155 31.3427 37.8376 29.7664 37.8376C28.19 37.8376 26.9121 39.1155 26.9121 40.6919C26.9121 42.2682 28.19 43.5461 29.7664 43.5461Z" stroke="#014945" stroke-width="3" stroke-miterlimit="10"/>
<path d="M42.2078 43.5461C43.7841 43.5461 45.062 42.2682 45.062 40.6919C45.062 39.1155 43.7841 37.8376 42.2078 37.8376C40.6314 37.8376 39.3535 39.1155 39.3535 40.6919C39.3535 42.2682 40.6314 43.5461 42.2078 43.5461Z" stroke="#014945" stroke-width="3" stroke-miterlimit="10"/>
<path d="M94.3198 69.3139V48.1507C93.375 48.4093 92.2711 48.4093 91.207 48.4093C86.314 48.4192 82.3359 44.9484 82.326 40.6621C82.3161 36.3757 86.2742 32.885 91.1771 32.8751C92.3407 32.8751 93.3651 33.0541 94.3198 33.3922V20.384C94.3198 18.1862 92.5396 16.406 90.3417 16.406L78.6065 16.4557C79.3325 15.1131 79.6707 13.5716 79.6707 11.871C79.6707 6.97804 76.1899 3 71.9035 3C67.6172 3 64.1364 6.96809 64.1364 11.871C64.1364 13.7109 64.5541 15.2026 65.3895 16.6148L54.9273 16.406C52.7294 16.406 50.9492 18.1862 50.9492 20.384V33.4121C51.9139 33.064 52.9482 32.8751 54.1316 32.885C59.0246 32.895 62.9927 36.3757 62.9828 40.672C62.9728 44.9584 58.9948 48.4292 54.1018 48.4192C53.0277 48.4192 51.9039 48.4192 50.9492 48.1408V69.3139" stroke="#014945" stroke-width="3" stroke-miterlimit="10" stroke-linecap="round" stroke-linejoin="round"/>
<path d="M98.0001 72.9239L74.1418 53.0437V64.5999H35.6543V80.9994H74.1418V92.5556L98.0001 72.9239Z" fill="white" stroke="#014945" stroke-width="3" stroke-miterlimit="10" stroke-linecap="round" stroke-linejoin="round"/>
<path d="M42.8047 68.3393C42.6058 68.3691 42.4069 68.3989 42.208 68.3989C40.1693 68.3989 38.5184 66.748 38.5184 64.7093C38.5184 63.5358 39.0853 62.4915 39.9405 61.8153C38.3692 59.4583 36.3305 57.4295 33.9536 55.888C33.2773 56.7333 32.253 57.2803 31.0894 57.2803C29.0507 57.2803 27.3998 55.6294 27.3998 53.5907C27.3998 53.4316 27.4296 53.2724 27.4495 53.1133C25.9279 52.7553 24.3367 52.5564 22.7057 52.5564C21.2537 52.5564 19.8316 52.7056 18.4691 52.994C18.4989 53.1829 18.5287 53.3818 18.5287 53.5807C18.5287 55.6195 16.8779 57.2704 14.8391 57.2704C13.5761 57.2704 12.4622 56.6339 11.7959 55.6692C9.18036 57.3002 6.95266 59.4981 5.28188 62.0838C5.95815 62.7501 6.37584 63.675 6.37584 64.6994C6.37584 66.7381 4.72496 68.389 2.68621 68.389C2.65638 68.389 2.62654 68.379 2.58676 68.379C2.20885 69.9404 2 71.5714 2 73.2521C2 74.6345 2.13923 75.987 2.3978 77.2899C2.49725 77.2799 2.58676 77.26 2.68621 77.26C4.72496 77.26 6.37584 78.9109 6.37584 80.9496C6.37584 82.1431 5.79903 83.1873 4.9338 83.8536C6.40568 86.31 8.37481 88.4383 10.702 90.0991C11.3583 89.0648 12.502 88.3786 13.8148 88.3786C15.8535 88.3786 17.5044 90.0295 17.5044 92.0683C17.5044 92.476 17.4248 92.8639 17.2956 93.2318C19.026 93.6993 20.836 93.9479 22.7057 93.9479C24.4063 93.9479 26.0572 93.7291 27.6385 93.3412C27.4893 92.9434 27.3998 92.5158 27.3998 92.0583C27.3998 90.0196 29.0507 88.3687 31.0894 88.3687C32.5116 88.3687 33.7248 89.1742 34.3414 90.3478C36.7482 88.7068 38.7968 86.5786 40.3284 84.0923C39.2444 83.4459 38.5184 82.2823 38.5184 80.9298C38.5184 78.891 40.1693 77.2401 42.208 77.2401C42.4765 77.2401 42.7451 77.27 42.9937 77.3296C43.2622 76.0069 43.4014 74.6345 43.4014 73.2322C43.4014 71.5714 43.1926 69.9205 42.8047 68.3393Z" fill="white" stroke="#014945" stroke-width="3" stroke-miterlimit="10"/>
<path d="M22.7056 77.7376C25.1717 77.7376 27.1709 75.7384 27.1709 73.2722C27.1709 70.8061 25.1717 68.8069 22.7056 68.8069C20.2394 68.8069 18.2402 70.8061 18.2402 73.2722C18.2402 75.7384 20.2394 77.7376 22.7056 77.7376Z" stroke="#014945" stroke-width="3" stroke-miterlimit="10"/>
<path d="M22.7063 84.4902C28.9019 84.4902 33.9244 79.4677 33.9244 73.2721C33.9244 67.0766 28.9019 62.0541 22.7063 62.0541C16.5108 62.0541 11.4883 67.0766 11.4883 73.2721C11.4883 79.4677 16.5108 84.4902 22.7063 84.4902Z" stroke="#014945" stroke-width="3" stroke-miterlimit="10"/>
</svg>
