<svg width="64" height="64" viewBox="0 0 64 64" fill="none" xmlns="http://www.w3.org/2000/svg">
<rect width="64" height="64" rx="8" fill="white"/>
<path d="M25.328 26.3964C22.7831 31.0366 17.7842 40.1446 17.7842 40.1446C17.7842 40.1446 29.3607 40.1494 29.3511 40.1446C30.26 40.1637 30.7336 40.3312 31.2167 41.2305C31.2167 41.2353 32.9627 44.4164 32.9627 44.4164C32.9627 44.4164 14.5409 44.4164 14.5361 44.4164C12.307 44.4068 11.3789 42.7804 12.4361 40.8861C14.6701 36.8965 23.3763 20.9957 23.3763 20.9861C23.8212 20.1681 24.51 19.6371 25.4189 19.6467C26.3278 19.6611 27.0215 20.2064 27.4663 21.01C27.4663 21.0196 37.5646 39.3936 37.5598 39.3888C37.8947 40.0011 38.3443 40.1207 38.9853 40.1255C43.769 40.1877 47.5385 36.6238 47.5624 31.9789C47.5863 27.5971 43.8694 23.9568 39.3106 23.9137C39.3154 23.9137 32.2643 23.9089 32.2643 23.9137C31.6664 23.8659 31.3363 23.6171 31.1067 23.2057C31.1162 23.2057 29.1597 19.618 29.1597 19.618C29.1597 19.618 36.3543 19.5415 39.2054 19.618C44.5583 19.7567 48.5383 22.139 50.8344 26.937C54.1686 33.9067 50.0403 42.2972 42.3865 44.0098C40.5639 44.4212 36.7322 44.4164 36.7275 44.4164C35.7755 44.4451 35.0915 43.9428 34.6131 43.0626C31.8051 37.8963 25.6725 26.8987 25.328 26.3964Z" fill="url(#paint0_linear_192_10984)"/>
<defs>
<linearGradient id="paint0_linear_192_10984" x1="48" y1="20.001" x2="10" y2="46.001" gradientUnits="userSpaceOnUse">
<stop stop-color="#00BFFF"/>
<stop offset="1" stop-color="#00E68A"/>
</linearGradient>
</defs>
</svg>
