<svg width="321" height="51" viewBox="0 0 321 51" fill="none" xmlns="http://www.w3.org/2000/svg">
<path d="M96.0703 20.6427L103.547 0.472595H108.244L115.721 20.6427H112.343L110.582 15.8889H101.199L99.4384 20.6427H96.0703ZM102.229 13.1559H109.562L106.184 3.93693H105.597L102.229 13.1559Z" fill="white"/>
<path d="M128.625 20.6427L128.337 18.9105H128.192C127.153 20.2578 125.642 20.9314 123.65 20.9314C121.697 20.9314 120.08 20.2481 118.81 18.8817C117.539 17.5152 116.904 15.706 116.904 13.435C116.904 11.1735 117.539 9.35475 118.81 7.98826C120.08 6.62177 121.697 5.93853 123.65 5.93853C124.507 5.93853 125.296 6.08288 126.008 6.3812C126.72 6.67951 127.182 6.92971 127.403 7.1318C127.615 7.33389 127.884 7.60333 128.192 7.94977H128.337V0.482208H131.272V20.6523H128.625V20.6427ZM121.052 16.9859C121.86 17.8905 122.871 18.3428 124.083 18.3428C125.296 18.3428 126.306 17.8905 127.114 16.9859C127.923 16.0813 128.327 14.8977 128.327 13.4446C128.327 11.9819 127.923 10.8078 127.114 9.90327C126.306 8.99869 125.296 8.5464 124.083 8.5464C122.871 8.5464 121.86 8.99869 121.052 9.90327C120.244 10.8078 119.839 11.9915 119.839 13.4446C119.83 14.9073 120.234 16.0813 121.052 16.9859Z" fill="white"/>
<path d="M138.604 20.6427L133.475 6.23688H136.554L140.509 17.4767H141.096L145.051 6.23688H148.131L143.002 20.6427H138.604Z" fill="white"/>
<path d="M159.429 20.6427L159.14 19.0549H158.995C158.697 19.4206 158.351 19.7381 157.937 20.0076C156.994 20.6234 155.887 20.9314 154.598 20.9314C152.991 20.9314 151.711 20.5176 150.758 19.69C149.805 18.8624 149.324 17.7846 149.324 16.4662C149.324 14.9843 149.825 13.8295 150.835 12.9827C151.845 12.1358 153.347 11.7124 155.339 11.7124H159.005V11.4237C159.005 10.4807 158.726 9.73967 158.187 9.2104C157.639 8.6715 156.888 8.40205 155.926 8.40205C154.983 8.40205 154.261 8.60414 153.751 9.01793C153.241 9.43173 152.943 9.89364 152.846 10.4133H149.911C149.988 9.14303 150.566 8.08449 151.643 7.22803C152.721 6.37157 154.145 5.94815 155.926 5.94815C157.821 5.94815 159.303 6.43893 160.352 7.42049C161.411 8.40205 161.94 9.73967 161.94 11.4237V20.6427H159.429ZM158.986 14.5994V14.022H155.464C154.386 14.022 153.578 14.2337 153.048 14.6571C152.509 15.0805 152.24 15.6387 152.24 16.3315C152.24 17.0051 152.461 17.5344 152.914 17.9193C153.366 18.3043 154.02 18.4967 154.877 18.4967C156.205 18.4967 157.225 18.1599 157.927 17.4767C158.63 16.7838 158.986 15.8311 158.986 14.5994Z" fill="white"/>
<path d="M165.588 20.6427V6.24649H168.225L168.523 7.68996H168.667C169.004 7.36277 169.36 7.07408 169.755 6.82388C170.698 6.24649 171.747 5.95779 172.921 5.95779C174.701 5.95779 176.125 6.49669 177.184 7.58411C178.252 8.67152 178.781 10.1439 178.781 12.0108V20.6523H175.846V12.0108C175.846 11.0677 175.509 10.2593 174.836 9.5761C174.162 8.89285 173.325 8.55604 172.324 8.55604C171.246 8.55604 170.342 8.89285 169.61 9.5761C168.879 10.2593 168.513 11.0677 168.513 12.0108V20.6523H165.588V20.6427Z" fill="white"/>
<path d="M192.86 15.6098H195.795C195.661 16.2064 195.439 16.7935 195.131 17.3708C194.823 17.9482 194.419 18.516 193.9 19.0741C193.38 19.6323 192.697 20.0846 191.859 20.431C191.022 20.7774 190.079 20.9507 189.04 20.9507C186.913 20.9507 185.152 20.2578 183.776 18.8721C182.4 17.4863 181.707 15.6868 181.707 13.4542C181.707 11.2313 182.4 9.42213 183.776 8.03639C185.152 6.65066 186.913 5.95779 189.04 5.95779C190.993 5.95779 192.533 6.49669 193.649 7.58411C194.766 8.67152 195.478 9.85517 195.786 11.1447H192.851C192.225 9.4125 190.955 8.55604 189.04 8.55604C187.77 8.55604 186.721 8.99871 185.883 9.89366C185.056 10.7886 184.632 11.9723 184.632 13.4542C184.632 14.9362 185.046 16.1198 185.883 17.0148C186.711 17.9097 187.77 18.3524 189.04 18.3524C190.098 18.3524 190.945 18.0733 191.59 17.5152C192.244 16.9474 192.668 16.3123 192.86 15.6098Z" fill="white"/>
<path d="M208.843 16.4663H211.923C211.49 17.6211 210.72 18.6507 209.594 19.5649C208.468 20.4791 207.044 20.9314 205.331 20.9314C203.204 20.9314 201.443 20.2386 200.067 18.8528C198.691 17.4671 197.998 15.6676 197.998 13.435C197.998 11.212 198.691 9.4029 200.067 8.01717C201.443 6.63143 203.204 5.93857 205.331 5.93857C207.323 5.93857 208.997 6.61219 210.345 7.95943C211.692 9.30667 212.365 10.9811 212.365 13.002C212.365 13.1752 212.337 13.5216 212.279 14.0413L212.221 14.4551H200.933C201.087 15.6868 201.568 16.6684 202.367 17.3901C203.166 18.1215 204.157 18.4871 205.331 18.4871C206.149 18.4871 206.88 18.2947 207.515 17.9001C208.141 17.5056 208.593 17.0244 208.843 16.4663ZM200.923 12.2898H209.575C209.421 11.1158 208.959 10.1728 208.199 9.47026C207.438 8.75815 206.476 8.40209 205.321 8.40209C204.109 8.40209 203.127 8.74853 202.386 9.45102C201.645 10.1535 201.164 11.1062 200.923 12.2898Z" fill="white"/>
<path d="M226.446 20.6427L226.157 18.9105H226.013C224.973 20.2578 223.462 20.9314 221.47 20.9314C219.517 20.9314 217.9 20.2481 216.63 18.8817C215.36 17.5152 214.725 15.706 214.725 13.435C214.725 11.1735 215.36 9.35475 216.63 7.98826C217.9 6.62177 219.517 5.93853 221.47 5.93853C222.327 5.93853 223.116 6.08288 223.828 6.3812C224.54 6.67951 225.002 6.92971 225.223 7.1318C225.435 7.33389 225.705 7.60333 226.013 7.94977H226.147V0.482208H229.082V20.6523H226.446V20.6427ZM218.863 16.9859C219.671 17.8905 220.681 18.3428 221.894 18.3428C223.106 18.3428 224.117 17.8905 224.925 16.9859C225.733 16.0813 226.138 14.8977 226.138 13.4446C226.138 11.9819 225.733 10.8078 224.925 9.90327C224.117 8.99869 223.106 8.5464 221.894 8.5464C220.681 8.5464 219.671 8.99869 218.863 9.90327C218.054 10.8078 217.65 11.9915 217.65 13.4446C217.64 14.9073 218.054 16.0813 218.863 16.9859Z" fill="white"/>
<path d="M240.225 20.6427V0.482208H247.413C250.213 0.482208 252.542 1.4349 254.419 3.33066C256.295 5.23604 257.238 7.64183 257.238 10.5576C257.238 13.4735 256.295 15.8889 254.419 17.7846C252.542 19.69 250.204 20.6331 247.413 20.6331H240.225V20.6427ZM243.304 17.7654H247.413C249.347 17.7654 250.954 17.1014 252.234 15.7638C253.514 14.4261 254.159 12.694 254.159 10.5673C254.159 8.44055 253.514 6.69876 252.234 5.37076C250.954 4.03315 249.347 3.36915 247.413 3.36915H243.304V17.7654Z" fill="white"/>
<path d="M260.318 3.50388V0.482208H263.542V3.50388H260.318ZM260.463 20.6427V6.24647H263.398V20.6523H260.463V20.6427Z" fill="white"/>
<path d="M266.919 21.5088H269.854C269.931 22.2209 270.307 22.8272 270.98 23.3372C271.654 23.8472 272.549 24.0974 273.665 24.0974C274.839 24.0974 275.792 23.751 276.523 23.0485C277.255 22.346 277.62 21.4511 277.62 20.354V18.0541H277.476C277.139 18.3813 276.85 18.6411 276.6 18.8336C276.35 19.026 275.888 19.2281 275.224 19.4494C274.56 19.6708 273.8 19.7766 272.934 19.7766C271.077 19.7766 269.537 19.1415 268.315 17.8616C267.093 16.5817 266.486 14.9169 266.486 12.8672C266.486 10.8079 267.093 9.14305 268.315 7.8728C269.537 6.59292 271.077 5.95779 272.934 5.95779C274.887 5.95779 276.408 6.5833 277.476 7.83431H277.62L277.909 6.24649H280.546V20.3636C280.546 22.2883 279.939 23.8183 278.727 24.9731C277.514 26.1279 275.821 26.7053 273.656 26.7053C272.52 26.7053 271.5 26.5321 270.605 26.1856C269.71 25.8392 269.008 25.3965 268.507 24.848C268.007 24.2995 267.631 23.7414 267.362 23.1736C267.102 22.6058 266.958 22.0477 266.919 21.5088ZM270.567 15.9947C271.336 16.7935 272.318 17.188 273.511 17.188C274.704 17.188 275.686 16.7935 276.456 15.9947C277.226 15.196 277.611 14.1567 277.611 12.8672C277.611 11.5777 277.226 10.5384 276.456 9.73969C275.686 8.94097 274.704 8.54642 273.511 8.54642C272.318 8.54642 271.336 8.94097 270.567 9.73969C269.797 10.5384 269.412 11.5777 269.412 12.8672C269.412 14.1567 269.797 15.196 270.567 15.9947Z" fill="white"/>
<path d="M284.223 3.50388V0.482208H287.446V3.50388H284.223ZM284.367 20.6427V6.24647H287.302V20.6523H284.367V20.6427Z" fill="white"/>
<path d="M292.286 17.621V8.97947H289.938V6.24649H292.286V2.20477H295.221V6.23687H298.598V8.96984H295.221V17.1784C295.221 17.7558 295.519 18.0445 296.096 18.0445H298.589V20.6331H295.509C294.47 20.6331 293.671 20.3636 293.123 19.8247C292.565 19.3051 292.286 18.5641 292.286 17.621Z" fill="white"/>
<path d="M310.763 20.6427L310.474 19.0549H310.329C310.031 19.4206 309.685 19.7381 309.271 20.0076C308.328 20.6234 307.221 20.9314 305.932 20.9314C304.325 20.9314 303.045 20.5176 302.092 19.69C301.13 18.8624 300.658 17.7846 300.658 16.4662C300.658 14.9843 301.159 13.8295 302.169 12.9827C303.179 12.1358 304.681 11.7124 306.673 11.7124H310.339V11.4237C310.339 10.4807 310.06 9.73967 309.521 9.2104C308.973 8.6715 308.222 8.40205 307.26 8.40205C306.317 8.40205 305.595 8.60414 305.085 9.01793C304.575 9.43173 304.277 9.89364 304.18 10.4133H301.245C301.322 9.14303 301.9 8.08449 302.977 7.22803C304.055 6.37157 305.479 5.94815 307.26 5.94815C309.155 5.94815 310.637 6.43893 311.686 7.42049C312.745 8.40205 313.274 9.73967 313.274 11.4237V20.6427H310.763ZM310.32 14.5994V14.022H306.798C305.72 14.022 304.912 14.2337 304.382 14.6571C303.843 15.0805 303.574 15.6387 303.574 16.3315C303.574 17.0051 303.795 17.5344 304.248 17.9193C304.7 18.3043 305.354 18.4967 306.211 18.4967C307.539 18.4967 308.559 18.1599 309.261 17.4767C309.973 16.7838 310.32 15.8311 310.32 14.5994Z" fill="white"/>
<path d="M317.066 20.6427V0.482208H320.001V20.6523H317.066V20.6427Z" fill="white"/>
<path d="M97.2441 43.5747H100.324C100.324 44.5562 100.785 45.4031 101.719 46.1056C102.643 46.8177 103.846 47.1737 105.308 47.1737C106.915 47.1737 108.099 46.9043 108.859 46.3558C109.62 45.8072 110.004 45.0759 110.004 44.1521C110.004 42.6701 108.83 41.7174 106.482 41.2747L102.527 40.553C100.92 40.2643 99.7173 39.658 98.9089 38.7342C98.1006 37.8104 97.6964 36.6364 97.6964 35.2218C97.6964 33.5281 98.3604 32.1231 99.6884 30.9972C101.016 29.8713 102.797 29.3132 105.029 29.3132C107.493 29.3132 109.408 29.9194 110.765 31.1416C112.122 32.3637 112.805 33.913 112.805 35.7992H109.725C109.725 34.8176 109.292 33.9708 108.436 33.2683C107.579 32.5562 106.444 32.2001 105.029 32.2001C103.701 32.2001 102.662 32.4888 101.902 33.0758C101.151 33.6628 100.776 34.3749 100.776 35.2218C100.776 36.646 101.806 37.5506 103.855 37.9548L107.079 38.5321C109.148 38.8978 110.668 39.5233 111.64 40.4183C112.612 41.3132 113.093 42.5546 113.093 44.1521C113.093 45.8842 112.42 47.2988 111.073 48.4055C109.725 49.5121 107.81 50.0607 105.328 50.0607C102.845 50.0607 100.882 49.4448 99.4286 48.213C97.9659 46.9909 97.2441 45.4416 97.2441 43.5747Z" fill="white"/>
<path d="M128.173 47.9821C126.797 49.3678 125.036 50.0607 122.909 50.0607C120.782 50.0607 119.021 49.3678 117.645 47.9821C116.269 46.5963 115.576 44.7968 115.576 42.5642C115.576 40.3413 116.269 38.5321 117.645 37.1464C119.021 35.7607 120.782 35.0678 122.909 35.0678C125.036 35.0678 126.797 35.7607 128.173 37.1464C129.549 38.5321 130.242 40.3317 130.242 42.5642C130.242 44.7968 129.549 46.606 128.173 47.9821ZM119.753 46.1248C120.58 47.0198 121.639 47.4624 122.909 47.4624C124.179 47.4624 125.228 47.0198 126.065 46.1248C126.893 45.2299 127.316 44.0462 127.316 42.5642C127.316 41.0823 126.903 39.8986 126.065 39.0037C125.238 38.1087 124.179 37.6661 122.909 37.6661C121.639 37.6661 120.59 38.1087 119.753 39.0037C118.925 39.8986 118.502 41.0823 118.502 42.5642C118.511 44.0462 118.925 45.2299 119.753 46.1248Z" fill="white"/>
<path d="M133.467 49.7719V29.6018H136.402V49.7719H133.467Z" fill="white"/>
<path d="M140.355 44.0077V35.3661H143.291V44.0077C143.291 44.9508 143.627 45.7591 144.301 46.4424C144.975 47.1256 145.812 47.4624 146.813 47.4624C147.89 47.4624 148.795 47.1256 149.526 46.4424C150.258 45.7591 150.623 44.9508 150.623 44.0077V35.3661H153.558V49.772H150.922L150.623 48.3285H150.479C150.142 48.6557 149.786 48.9444 149.392 49.1946C148.449 49.772 147.4 50.0607 146.226 50.0607C144.445 50.0607 143.021 49.5218 141.963 48.4344C140.894 47.347 140.355 45.8746 140.355 44.0077Z" fill="white"/>
<path d="M158.543 46.7503V38.1087H156.195V35.3758H158.543V31.3437H161.478V35.3758H164.856V38.1087H161.478V46.3173C161.478 46.8947 161.777 47.1834 162.354 47.1834H164.847V49.772H161.767C160.728 49.772 159.929 49.5025 159.381 48.9636C158.822 48.4247 158.543 47.6934 158.543 46.7503Z" fill="white"/>
<path d="M167.926 32.6331V29.6115H171.15V32.6331H167.926ZM168.08 49.772V35.3661H171.015V49.772H168.08Z" fill="white"/>
<path d="M186.683 47.9821C185.307 49.3678 183.545 50.0607 181.419 50.0607C179.292 50.0607 177.531 49.3678 176.155 47.9821C174.779 46.5963 174.086 44.7968 174.086 42.5642C174.086 40.3413 174.779 38.5321 176.155 37.1464C177.531 35.7607 179.292 35.0678 181.419 35.0678C183.545 35.0678 185.307 35.7607 186.683 37.1464C188.059 38.5321 188.752 40.3317 188.752 42.5642C188.752 44.7968 188.068 46.606 186.683 47.9821ZM178.272 46.1248C179.1 47.0198 180.158 47.4624 181.428 47.4624C182.699 47.4624 183.748 47.0198 184.585 46.1248C185.412 45.2299 185.836 44.0462 185.836 42.5642C185.836 41.0823 185.422 39.8986 184.585 39.0037C183.757 38.1087 182.699 37.6661 181.428 37.6661C180.158 37.6661 179.109 38.1087 178.272 39.0037C177.444 39.8986 177.021 41.0823 177.021 42.5642C177.021 44.0462 177.435 45.2299 178.272 46.1248Z" fill="white"/>
<path d="M191.83 49.772V35.3661H194.467L194.765 36.8096H194.909C195.246 36.4824 195.602 36.1937 195.997 35.9435C196.94 35.3661 197.989 35.0775 199.163 35.0775C200.943 35.0775 202.367 35.6163 203.426 36.7038C204.494 37.7912 205.023 39.2635 205.023 41.1304V49.772H202.088V41.1304C202.088 40.1873 201.752 39.379 201.078 38.6958C200.404 38.0125 199.567 37.6757 198.566 37.6757C197.488 37.6757 196.584 38.0125 195.853 38.6958C195.121 39.379 194.756 40.1873 194.756 41.1304V49.772H191.83Z" fill="white"/>
<path d="M207.67 45.4512H210.605C210.605 45.9708 210.903 46.4616 211.481 46.9235C212.068 47.3854 212.895 47.6164 213.973 47.6164C214.993 47.6164 215.753 47.4335 216.273 47.0582C216.793 46.6829 217.052 46.2499 217.052 45.7495C217.052 45.2298 216.889 44.8257 216.552 44.5274C216.215 44.229 215.657 44.0173 214.849 43.8826L212.212 43.4496C209.373 42.9877 207.959 41.5923 207.959 39.2731C207.959 38.0606 208.459 37.0694 209.469 36.2803C210.48 35.4912 211.923 35.0967 213.829 35.0967C214.83 35.0967 215.734 35.2506 216.542 35.5586C217.351 35.8665 217.986 36.2611 218.448 36.7422C218.91 37.2234 219.256 37.7045 219.487 38.1953C219.718 38.6861 219.843 39.1384 219.843 39.5618H216.908C216.908 39.0614 216.648 38.5995 216.119 38.1761C215.59 37.7527 214.83 37.541 213.829 37.541C212.847 37.541 212.116 37.7045 211.625 38.0414C211.134 38.3782 210.894 38.7823 210.894 39.2635C210.894 40.1296 211.625 40.707 213.097 40.9957L215.734 41.4287C218.573 41.8906 219.988 43.3341 219.988 45.7495C219.988 46.9813 219.478 48.0013 218.448 48.8289C217.418 49.6565 215.927 50.0703 213.973 50.0703C212.876 50.0703 211.894 49.9067 211.028 49.5795C210.162 49.2523 209.489 48.8385 209.036 48.3381C208.574 47.8377 208.238 47.3469 208.007 46.8562C207.785 46.3558 207.67 45.8938 207.67 45.4512Z" fill="white"/>
<path d="M26.8117 13.7044C21.6922 23.0389 11.636 41.3613 11.636 41.3613C11.636 41.3613 34.924 41.371 34.9048 41.3613C36.7332 41.3998 37.6859 41.7366 38.6578 43.5458C38.6578 43.5554 42.1703 49.9548 42.1703 49.9548C42.1703 49.9548 5.11154 49.9548 5.10191 49.9548C0.617529 49.9356 -1.24936 46.6637 0.877353 42.8529C5.37136 34.8272 22.8855 2.8399 22.8855 2.82065C23.7804 1.17509 25.1662 0.106924 26.9946 0.12617C28.823 0.15504 30.2183 1.25208 31.1133 2.86877C31.1133 2.88801 51.4277 39.8505 51.4181 39.8409C52.0917 41.0726 52.9963 41.3132 54.2858 41.3228C63.9089 41.4479 71.492 34.2787 71.5401 24.9346C71.5882 16.1198 64.111 8.79662 54.9402 8.71001C54.9498 8.71001 40.7653 8.70039 40.7653 8.71001C39.5624 8.61378 38.8984 8.11338 38.4365 7.28579C38.4557 7.28579 34.5199 0.0684312 34.5199 0.0684312C34.5199 0.0684312 48.9931 -0.085539 54.7285 0.0684312C65.4967 0.347502 73.5032 5.13983 78.1223 14.7918C84.8296 28.8128 76.5249 45.6917 61.1278 49.1368C57.4614 49.9644 49.7533 49.9548 49.7437 49.9548C47.8287 50.0125 46.4526 49.0021 45.4902 47.2315C39.8415 36.8385 27.5046 14.7149 26.8117 13.7044Z" fill="url(#paint0_linear_372_4193)"/>
<defs>
<linearGradient id="paint0_linear_372_4193" x1="73.7699" y1="8.70915" x2="1.82908" y2="47.8696" gradientUnits="userSpaceOnUse">
<stop stop-color="#00BFFF"/>
<stop offset="1" stop-color="#00E68A"/>
</linearGradient>
</defs>
</svg>
