<svg width="96" height="96" viewBox="0 0 96 96" fill="none" xmlns="http://www.w3.org/2000/svg">
<path d="M96 40.2564H92.5192L87.3333 42.9806C86.7481 42.6577 86.1427 42.3853 85.4869 42.2239L78.9591 40.5894V39.8529C81.8447 37.835 83.6103 34.5156 83.6103 30.9642V28.2602C83.6103 22.247 78.8986 17.2124 73.1073 17.0308C72.8147 17.0207 72.5221 17.0308 72.2295 17.051L73.9245 13.096L65.7219 4.90342L60.8891 8.05129C59.0529 7.01209 57.1056 6.21503 55.0978 5.65003L53.9073 0H42.1028L40.9122 5.63994C38.8944 6.20494 36.9471 7.01209 35.121 8.0412L30.2882 4.89333L22.0956 13.0859L23.7604 17.051C23.6998 17.051 23.6393 17.0409 23.5687 17.0308C20.6024 16.94 17.8077 18.0296 15.6889 20.0879C13.5601 22.1461 12.3998 24.9106 12.3998 27.8667V30.9642C12.3998 34.5055 14.1553 37.835 17.0409 39.8529V40.5995L12.7832 41.6589L5.07493 37.159H0V69.2431L15.2349 74.318H18.2012L18.5745 73.0165L23.2458 75.8213C23.3265 78.3638 25.3545 80.4019 27.897 80.4927C27.9878 83.015 30.0158 85.0531 32.5381 85.1338C32.6289 87.6561 34.6569 89.6942 37.1792 89.7749C37.27 92.3577 39.3888 94.4361 41.9918 94.4361C42.9604 94.4361 43.9088 94.1335 44.7058 93.5987L46.078 94.8095C46.9356 95.5662 48.0454 95.9899 49.1956 95.9899H49.4781C52.0509 95.9899 54.1495 93.9115 54.1797 91.3387C56.7323 91.3084 58.7905 89.2401 58.8208 86.6976C61.3734 86.6674 63.4417 84.599 63.4619 82.0464C66.0347 81.9859 68.1131 79.8873 68.1131 77.2944C68.1131 77.143 68.103 76.9816 68.0929 76.8303L95.9899 62.8868V40.2564H96ZM80.523 28.2602V30.9642C80.523 33.7085 79.0398 36.2812 76.6487 37.6635L75.8718 38.1074L75.8819 43.0108L83.6204 44.948L66.5896 53.9073V49.7404C66.5896 47.662 65.7522 45.7551 64.3699 44.3426L69.687 43.0108V38.1074L68.9101 37.6635C66.519 36.2812 65.0358 33.7185 65.0358 30.9642V27.8667C65.0358 25.7581 65.8733 23.7806 67.3867 22.3075C68.9001 20.8345 70.9179 20.0475 73.0165 20.1282C77.1531 20.2594 80.523 23.9016 80.523 28.2602ZM50.3357 52.6966L43.3236 50.4567C40.1253 49.4377 36.6747 49.2763 33.4058 50.0027L32.5179 50.1944V49.7404C32.5179 47.6015 33.9708 45.7551 36.0391 45.2305L44.9076 43.0108V38.1074L44.1307 37.6635C41.7396 36.2812 40.2564 33.7185 40.2564 30.9642V27.8667C40.2564 25.7581 41.0939 23.7806 42.6073 22.3075C44.1207 20.8345 46.1486 20.0475 48.2371 20.1282C52.3737 20.2493 55.7436 23.9016 55.7436 28.2602V30.9642C55.7436 33.7085 54.2604 36.2812 51.8693 37.6635L51.0924 38.1074L51.1025 43.0108L59.971 45.2305C62.0393 45.745 63.4922 47.6015 63.4922 49.7404V55.5418L63.1088 55.7436H62.1503L52.626 53.0194C51.8894 52.8076 51.1126 52.7268 50.3357 52.6966ZM32.861 23.1752C35.7667 17.5453 41.6185 13.9334 47.995 13.9334C54.3109 13.9334 60.1425 17.4949 63.0684 23.044C62.3319 24.5272 61.9283 26.1616 61.9283 27.8667V30.9642C61.9283 34.5055 63.6839 37.835 66.5694 39.8529V40.5995L60.3746 42.1532L54.1797 40.5995V39.8529C57.0653 37.835 58.8309 34.5156 58.8309 30.9642V28.2602C58.8309 22.247 54.1192 17.2124 48.3279 17.0308C45.3616 16.94 42.5669 18.0296 40.4481 20.0879C38.3294 22.1461 37.159 24.9106 37.159 27.8667V30.9642C37.159 34.5055 38.9146 37.835 41.8001 39.8529V40.5995L35.6053 42.1532L29.4104 40.5995V39.8529C32.296 37.835 34.0616 34.5156 34.0616 30.9642V28.2602C34.0616 26.4441 33.6277 24.7088 32.861 23.1752ZM25.748 13.8123L30.6918 8.86852L35.0503 11.7036L35.8878 11.1891C37.9762 9.90772 40.2363 8.96942 42.5972 8.40441L43.5456 8.17236L44.6251 3.08734H51.4052L52.4645 8.17236L53.4129 8.40441C55.7738 8.96942 58.0338 9.90772 60.1223 11.1891L60.9597 11.7036L65.3183 8.86852L70.2621 13.8123L68.5066 17.9287C67.316 18.4433 66.2062 19.1697 65.2376 20.0979C65.1771 20.1585 65.1166 20.2291 65.056 20.2896C61.4037 14.4883 54.9566 10.846 48.005 10.846C41.0031 10.846 34.5358 14.5286 30.9036 20.3805C29.925 19.3614 28.7748 18.5341 27.4833 17.959L25.748 13.8123ZM20.1282 43.0209V38.1175L19.3513 37.6736C16.9602 36.2913 15.477 33.7286 15.477 30.9742V27.8768C15.477 25.7682 16.3145 23.7906 17.8279 22.3176C19.3413 20.8446 21.3591 20.0576 23.4577 20.1383C27.5943 20.2594 30.9642 23.9117 30.9642 28.2703V30.9742C30.9642 33.7185 29.481 36.2913 27.0899 37.6736L26.313 38.1175L26.3231 43.0209L31.6401 44.3527C30.268 45.7652 29.4205 47.6721 29.4205 49.7505V50.9007L24.5877 51.9701L24.7088 51.5363L24.7693 48.6709L16.607 43.9088L20.1282 43.0209ZM3.09743 40.2564H4.22743L15.3661 46.754L9.7463 69.233L3.09743 67.0133V40.2564ZM15.7394 71.2307L12.6924 70.2117L18.1507 48.3783L21.682 50.4366V50.8805L15.8705 71.2307H15.7394ZM26.3231 75.6902C26.3231 75.2361 26.5047 74.7821 26.8275 74.4593L29.5517 71.7351C29.8745 71.4123 30.3184 71.2307 30.7826 71.2307C31.741 71.2307 32.5179 72.0076 32.5179 72.966C32.5179 73.4201 32.3363 73.8741 32.0135 74.1969L29.2893 76.9211C28.9665 77.2439 28.5225 77.4255 28.0584 77.4255C27.0999 77.4255 26.3231 76.6487 26.3231 75.6902ZM30.9642 80.3313C30.9642 79.8772 31.1458 79.4232 31.4686 79.1004L34.1927 76.3762C34.5156 76.0534 34.9595 75.8718 35.4236 75.8718C36.3821 75.8718 37.159 76.6487 37.159 77.6071C37.159 78.0612 36.9774 78.5152 36.6545 78.838L33.9304 81.5622C33.6076 81.885 33.1636 82.0666 32.6995 82.0666C31.7511 82.0666 30.9642 81.2897 30.9642 80.3313ZM35.6153 84.9724C35.6153 84.5183 35.797 84.0643 36.1198 83.7415L38.8439 81.0173C39.1668 80.6945 39.6107 80.5129 40.0748 80.5129C41.0333 80.5129 41.8102 81.2897 41.8102 82.2482C41.8102 82.7022 41.6286 83.1563 41.3057 83.4791L38.5816 86.2033C38.2588 86.5261 37.8148 86.7077 37.3507 86.7077C36.3922 86.7178 35.6153 85.9308 35.6153 84.9724ZM41.9918 91.3589C41.0333 91.3589 40.2564 90.582 40.2564 89.6235C40.2564 89.1695 40.438 88.7155 40.7609 88.3926L43.485 85.6685C43.8079 85.3457 44.2518 85.1641 44.7159 85.1641C45.6744 85.1641 46.4513 85.9409 46.4513 86.8994C46.4513 87.3534 46.2697 87.8075 45.9468 88.1303L43.2227 90.8544C42.8998 91.1773 42.4559 91.3589 41.9918 91.3589ZM49.4882 92.9026H49.2057C48.8122 92.9026 48.4288 92.7613 48.1362 92.499L46.9759 91.48L48.1362 90.3197C48.5499 89.906 48.8727 89.4117 49.1149 88.8769L50.5274 90.0473C50.8906 90.35 51.1126 90.804 51.1126 91.2883C51.1025 92.1862 50.376 92.9026 49.4882 92.9026ZM63.3711 78.9692H63.0987C62.7052 78.9692 62.3319 78.8279 62.0292 78.5858L53.6349 71.5838L51.6473 73.9649L59.7995 80.755C60.1627 81.0577 60.3746 81.5117 60.3746 81.996C60.3746 82.8839 59.6481 83.6103 58.7603 83.6103H58.4273C58.054 83.6103 57.6807 83.4791 57.3982 83.237L48.9837 76.2249L46.9961 78.606L55.1483 85.3961C55.5115 85.6988 55.7335 86.1528 55.7335 86.6371C55.7335 87.525 55.007 88.2514 54.1192 88.2514C53.5239 88.2514 52.9488 88.0395 52.4948 87.6662L49.0342 84.7807C48.2775 83.2269 46.7035 82.1373 44.8774 82.0767C44.7865 79.5544 42.7586 77.5163 40.2363 77.4356C40.1455 74.9133 38.1175 72.8752 35.5952 72.7945C35.5044 70.2117 33.3856 68.1333 30.7826 68.1333C29.5113 68.1333 28.2602 68.6478 27.3623 69.5458L24.6382 72.2699C24.4767 72.4313 24.3456 72.6129 24.2043 72.8046L19.4522 69.9493L23.6191 55.3602L34.0717 53.0396C36.816 52.4242 39.7015 52.5553 42.3752 53.4129L44.6554 54.1394L36.927 58.0036C35.1613 58.8914 34.0616 60.6672 34.0616 62.6447V62.9473C34.0616 65.8026 36.3922 68.1333 39.2475 68.1333C40.1858 68.1333 41.114 67.881 41.9111 67.3967L47.6721 63.9361C48.8324 63.2399 50.3861 63.3913 51.385 64.2892L64.4708 76.0635C64.824 76.3762 65.0257 76.8303 65.0257 77.3045C65.0358 78.2226 64.2892 78.9692 63.3711 78.9692ZM92.9026 60.9799L66.8217 74.0254C66.7409 73.9346 66.6501 73.8539 66.5593 73.7631L53.4735 61.9889C52.3233 60.9497 50.8502 60.3847 49.2965 60.3847C48.1665 60.3847 47.0566 60.6873 46.0881 61.2725L40.317 64.7332C39.9941 64.9249 39.6208 65.0257 39.2475 65.0257C38.0973 65.0257 37.159 64.0874 37.159 62.9373V62.6346C37.159 61.8375 37.6029 61.1212 38.3193 60.768L46.9558 56.4498C48.4389 55.7133 50.1843 55.5418 51.7785 56.0059L61.5046 58.7804L63.8655 58.841L92.9026 43.5556V60.9799Z" fill="#014945"/>
</svg>
